<?xml version="1.0" encoding="UTF-8" standalone="no"?>
<!-- Created with Inkscape (http://www.inkscape.org/) -->

<svg
   width="210mm"
   height="297mm"
   viewBox="0 0 210 297"
   version="1.1"
   id="svg5"
   inkscape:version="1.1.2 (b8e25be833, 2022-02-05)"
   sodipodi:docname="CAD.svg"
   xmlns:inkscape="http://www.inkscape.org/namespaces/inkscape"
   xmlns:sodipodi="http://sodipodi.sourceforge.net/DTD/sodipodi-0.dtd"
   xmlns:xlink="http://www.w3.org/1999/xlink"
   xmlns="http://www.w3.org/2000/svg"
   xmlns:svg="http://www.w3.org/2000/svg">
  <sodipodi:namedview
     id="namedview7"
     pagecolor="#ffffff"
     bordercolor="#666666"
     borderopacity="1.0"
     inkscape:pageshadow="2"
     inkscape:pageopacity="0.0"
     inkscape:pagecheckerboard="0"
     inkscape:document-units="mm"
     showgrid="false"
     inkscape:zoom="0.733172"
     inkscape:cx="2330.9674"
     inkscape:cy="-2336.4231"
     inkscape:window-width="1920"
     inkscape:window-height="1009"
     inkscape:window-x="-8"
     inkscape:window-y="-8"
     inkscape:window-maximized="1"
     inkscape:current-layer="layer1" />
  <defs
     id="defs2">
    <g
       id="d">
      <g
         id="b">
        <path
           id="a"
           d="M0-1l-.3 1 .5.1z" />
        <use
           transform="scale(-1 1)"
           xlink:href="#a"
           id="use1183" />
      </g>
      <g
         id="c">
        <use
           transform="rotate(72)"
           xlink:href="#b"
           id="use1186" />
        <use
           transform="rotate(144)"
           xlink:href="#b"
           id="use1188" />
      </g>
      <use
         transform="scale(-1 1)"
         xlink:href="#c"
         id="use1191" />
    </g>
    <clipPath
       id="a-0">
      <path
         fill-opacity=".7"
         d="M-85.3 0h682.6v512H-85.3z"
         id="path1259" />
    </clipPath>
    <clipPath
       id="bv-a">
      <path
         fill-opacity=".7"
         d="M0 0h640v480H0z"
         id="path1813" />
    </clipPath>
    <clipPath
       id="a-3">
      <path
         fill-opacity=".7"
         d="M0 0h640v480H0z"
         id="path1959" />
    </clipPath>
    <clipPath
       id="a-06">
      <path
         fill-opacity=".7"
         d="M-53.4 0h682.6v512H-53.4z"
         id="path1985" />
    </clipPath>
    <g
       id="nz-b">
      <g
         id="nz-a">
        <path
           d="M0-.3v.5l1-.5z"
           id="path2700" />
        <path
           d="M.2.3 0-.1l1-.2z"
           id="path2702" />
      </g>
      <use
         xlink:href="#nz-a"
         transform="scale(-1 1)"
         id="use2705" />
      <use
         xlink:href="#nz-a"
         transform="rotate(72 0 0)"
         id="use2707" />
      <use
         xlink:href="#nz-a"
         transform="rotate(-72 0 0)"
         id="use2709" />
      <use
         xlink:href="#nz-a"
         transform="scale(-1 1)rotate(72)"
         id="use2711" />
    </g>
    <g
       id="eu-d">
      <g
         id="eu-b">
        <path
           id="eu-a"
           d="m0-1-.3 1 .5.1z" />
        <use
           xlink:href="#eu-a"
           transform="scale(-1 1)"
           id="use3364" />
      </g>
      <g
         id="eu-c">
        <use
           xlink:href="#eu-b"
           transform="rotate(72)"
           id="use3367" />
        <use
           xlink:href="#eu-b"
           transform="rotate(144)"
           id="use3369" />
      </g>
      <use
         xlink:href="#eu-c"
         transform="scale(-1 1)"
         id="use3372" />
    </g>
    <clipPath
       clipPathUnits="userSpaceOnUse"
       id="clipPath3778">
      <rect
         style="fill:none;fill-rule:evenodd;stroke:#ffffff;stroke-width:0;stroke-dashoffset:45.3543"
         id="rect3780"
         width="511.99997"
         height="511.99997"
         x="6.2500162"
         y="-2.8168445e-06" />
    </clipPath>
    <clipPath
       id="jp-a">
      <path
         fill-opacity=".7"
         d="M177.2 0h708.6v708.7H177.2z"
         id="path3986" />
    </clipPath>
    <radialGradient
       xlink:href="#mx-a"
       id="mx-b"
       cx="842.3"
       cy="103.7"
       r="25.9"
       gradientTransform="matrix(.11321 .02876 -.02762 .11359 180.2 193.2)"
       gradientUnits="userSpaceOnUse" />
    <radialGradient
       xlink:href="#mx-a"
       id="mx-c"
       cx="651.5"
       cy="550.5"
       r="25.9"
       gradientTransform="matrix(-.10753 -.04307 .03971 -.09991 375.3 9.8)"
       gradientUnits="userSpaceOnUse" />
    <radialGradient
       xlink:href="#mx-a"
       id="mx-d"
       cx="380.8"
       cy="740.4"
       r="25.9"
       gradientTransform="matrix(.06029 .00225 -.00274 .11843 377.4 -120)"
       gradientUnits="userSpaceOnUse" />
    <linearGradient
       id="mx-a">
      <stop
         offset="0"
         stop-color="#fff"
         id="stop4008" />
      <stop
         offset="1"
         stop-color="#f15770"
         id="stop4010" />
    </linearGradient>
    <g
       id="nz-b-5">
      <g
         id="nz-a-7">
        <path
           d="M0-.3v.5l1-.5z"
           id="path5146" />
        <path
           d="M.2.3 0-.1l1-.2z"
           id="path5148" />
      </g>
      <use
         xlink:href="#nz-a-7"
         transform="scale(-1 1)"
         id="use5151" />
      <use
         xlink:href="#nz-a-7"
         transform="rotate(72 0 0)"
         id="use5153" />
      <use
         xlink:href="#nz-a-7"
         transform="rotate(-72 0 0)"
         id="use5155" />
      <use
         xlink:href="#nz-a-7"
         transform="scale(-1 1)rotate(72)"
         id="use5157" />
    </g>
    <clipPath
       id="sg-a">
      <path
         fill-opacity=".7"
         d="M27.7 0h708.6v708.7H27.7z"
         id="path5360" />
    </clipPath>
  </defs>
  <g
     inkscape:label="Layer 1"
     inkscape:groupmode="layer"
     id="layer1">
    <g
       fill-rule="evenodd"
       id="g5321"
       transform="matrix(0.26458333,0,0,0.26458333,-537.25911,-718.94517)"
       inkscape:export-filename="C:\Users\Rich\Desktop\PLN.png"
       inkscape:export-xdpi="96"
       inkscape:export-ydpi="96">
      <path
         fill="#ffffff"
         d="M 512,512 H 0 V 0 h 512 z"
         id="path5317" />
      <path
         fill="#dc143c"
         d="M 512,512 H 0 V 256 h 512 z"
         id="path5319" />
    </g>
    <g
       id="g5345"
       transform="matrix(0.26458333,0,0,0.26458333,-190.21832,-716.90375)"
       inkscape:export-filename="C:\Users\Rich\Desktop\RUB.png"
       inkscape:export-xdpi="96"
       inkscape:export-ydpi="96">
      <path
         fill="#ffffff"
         d="M 0,0 H 512 V 170.7 H 0 Z"
         id="path5331" />
      <path
         fill="#0039a6"
         d="M 0,170.7 H 512 V 341.3 H 0 Z"
         id="path5333" />
      <path
         fill="#d52b1e"
         d="M 0,341.3 H 512 V 512 H 0 Z"
         id="path5335" />
    </g>
    <g
       id="g5358"
       transform="matrix(0.26458333,0,0,0.26458333,189.48514,-735.2765)"
       inkscape:export-filename="C:\Users\Rich\Desktop\SEK.png"
       inkscape:export-xdpi="96"
       inkscape:export-ydpi="96">
      <path
         fill="#005293"
         d="M 0,0 H 512 V 512 H 0 Z"
         id="path5347" />
      <path
         fill="#fecb00"
         d="M 134,0 V 204.8 H 0 V 307.2 H 134 V 512 H 236.4 V 307.2 H 512 V 204.8 H 236.4 V 0 Z"
         id="path5349" />
    </g>
    <g
       fill-rule="evenodd"
       clip-path="url(#sg-a)"
       transform="matrix(0.19117509,0,0,0.19114811,592.47864,-723.03179)"
       id="g5373"
       inkscape:export-filename="C:\Users\Rich\Desktop\SGD.png"
       inkscape:export-xdpi="96"
       inkscape:export-ydpi="96">
      <path
         fill="#ffffff"
         d="M 0,0 H 1063 V 708.7 H 0 Z"
         id="path5365" />
      <path
         fill="#df0000"
         d="M 0,0 H 1063 V 354.3 H 0 Z"
         id="path5367" />
      <path
         fill="#ffffff"
         d="m 245.2,59.4 a 124.6,124.6 0 0 0 1.1,243.9 126.9,126.9 0 1 1 -1.1,-243.9"
         id="path5369" />
      <path
         fill="#ffffff"
         d="m 202,162.4 -18.9,-13.8 23.5,-0.2 7.2,-22.3 7.5,22.3 h 23.4 l -18.8,14 7.2,22.3 L 214,171 195,184.8 Z m 26,76.9 -19,-13.8 23.5,-0.2 7.3,-22.3 7.4,22.2 h 23.5 l -19,14 7.3,22.3 -19,-13.6 -19,13.8 z m 86.3,-0.6 -19,-13.8 23.4,-0.2 7.3,-22.3 7.4,22.3 H 357 l -18.9,14 7.3,22.3 -19.1,-13.7 -19,13.8 z m 25.7,-76.2 -19,-13.8 23.5,-0.2 7.2,-22.3 7.5,22.2 h 23.4 l -18.8,14 7.2,22.3 -19.1,-13.6 -19,13.8 z M 271.7,112 252.7,98.2 276.2,98 283.5,75.7 290.9,98 h 23.5 l -19,14 7.3,22.2 -19,-13.6 -19,13.8 z"
         id="path5371" />
    </g>
    <g
       fill-rule="evenodd"
       id="g5393"
       transform="matrix(0.26458333,0,0,0.26458333,-498.4722,-298.41339)">
      <path
         fill="#e30a17"
         d="M 0,0 H 512 V 512 H 0 Z"
         id="path5385" />
      <path
         fill="#ffffff"
         d="m 348.8,264 c 0,70.6 -58.3,127.9 -130.1,127.9 -71.8,0 -130.1,-57.3 -130.1,-128 0,-70.7 58.2,-127.8 130,-127.8 71.8,0 130.3,57.2 130.3,127.9 z"
         id="path5387" />
      <path
         fill="#e30a17"
         d="m 355.3,264 c 0,56.5 -46.6,102.3 -104.1,102.3 -57.5,0 -104,-45.8 -104,-102.3 0,-56.5 46.5,-102.3 104,-102.3 57.5,0 104,45.8 104,102.3 z"
         id="path5389" />
      <path
         fill="#ffffff"
         d="m 374.1,204.2 -1,47.3 -44.2,12 43.5,15.5 -1,43.3 28.3,-33.8 42.9,14.8 -24.8,-36.3 30.2,-36.1 -46.4,12.8 z"
         id="path5391" />
    </g>
    <g
       id="g5451"
       transform="matrix(0.26458333,0,0,0.26458333,571.23001,-263.70931)">
      <path
         fill="#bd3d44"
         d="M 0,0 H 512 V 512 H 0"
         id="path5429" />
      <path
         stroke="#ffffff"
         stroke-width="40"
         d="M 0,58 H 512 M 0,137 H 512 M 0,216 H 512 M 0,295 H 512 M 0,374 H 512 M 0,453 h 512"
         id="path5431" />
      <path
         fill="#192f5d"
         d="M 0,0 H 390 V 275 H 0 Z"
         id="path5433" />
      <marker
         id="us-a-0"
         markerHeight="30"
         markerWidth="30">
        <path
           fill="#ffffff"
           d="M 15,0 24.3,28.6 0,11 H 30 L 5.7,28.6"
           id="path5435" />
      </marker>
      <path
         fill="none"
         marker-mid="url(#us-a-0)"
         d="m 0,0 18,11 h 65 65 65 65 66 L 51,39 h 65 65 65 65 L 18,66 h 65 65 65 65 66 L 51,94 h 65 65 65 65 L 18,121 h 65 65 65 65 66 L 51,149 h 65 65 65 65 L 18,177 h 65 65 65 65 66 L 51,205 h 65 65 65 65 L 18,232 h 65 65 65 65 66 z"
         id="path5438"
         style="marker-mid:url(#us-a-0)" />
    </g>
  </g>
</svg>
